/* XPM */
static char * lookat_xpm[] = {
"128 43 257 2",
"  	c None",
". 	c #020202",
"+ 	c #848484",
"@ 	c #872F02",
"# 	c #8D5937",
"$ 	c #C4C4C4",
"% 	c #CC834E",
"& 	c #C45803",
"* 	c #CA8A66",
"= 	c #CD6F25",
"- 	c #444444",
"; 	c #FEA336",
"> 	c #C73802",
", 	c #471D02",
"' 	c #F68202",
") 	c #EA8549",
"! 	c #8A4315",
"~ 	c #E75B02",
"{ 	c #E87002",
"] 	c #662902",
"^ 	c #DEAA7A",
"/ 	c #E8954E",
"( 	c #EC6F2D",
"_ 	c #242424",
": 	c #A74402",
"< 	c #986347",
"[ 	c #EA4002",
"} 	c #E86403",
"| 	c #EFA974",
"1 	c #F4B676",
"2 	c #261004",
"3 	c #AE581B",
"4 	c #483020",
"5 	c #FC943F",
"6 	c #663618",
"7 	c #A73302",
"8 	c #FE9314",
"9 	c #FD7003",
"0 	c #E4E3E4",
"a 	c #CD6205",
"b 	c #FEB24E",
"c 	c #AE6C3B",
"d 	c #B74702",
"e 	c #EBA35D",
"f 	c #FD6403",
"g 	c #FD9452",
"h 	c #572403",
"i 	c #FDA86D",
"j 	c #94440E",
"k 	c #FD7C03",
"l 	c #E94E02",
"m 	c #351603",
"n 	c #FEC38C",
"o 	c #CA4702",
"p 	c #AA5D2A",
"q 	c #883703",
"r 	c #FD7132",
"s 	c #646464",
"t 	c #F28330",
"u 	c #161413",
"v 	c #FD8440",
"w 	c #F3B88B",
"x 	c #DC9455",
"y 	c #FE5803",
"z 	c #D45804",
"A 	c #FAA44F",
"B 	c #772902",
"C 	c #FCAC57",
"D 	c #FE6326",
"E 	c #FB7C2F",
"F 	c #C56F35",
"G 	c #E2DEE2",
"H 	c #FDB070",
"I 	c #150A03",
"J 	c #69432C",
"K 	c #963902",
"L 	c #79380E",
"M 	c #FD4C04",
"N 	c #D4833F",
"O 	c #4A2710",
"P 	c #D74802",
"Q 	c #B95003",
"R 	c #FD8C3D",
"S 	c #FE5B1E",
"T 	c #FE7219",
"U 	c #F59D57",
"V 	c #985020",
"W 	c #D4703C",
"X 	c #A74F12",
"Y 	c #5C3015",
"Z 	c #D76403",
"` 	c #B9602A",
" .	c #221D1F",
"..	c #A5A5A5",
"+.	c #C45824",
"@.	c #FECEAC",
"#.	c #FE942A",
"$.	c #FE8A03",
"%.	c #643011",
"&.	c #FD9C40",
"*.	c #D8844F",
"=.	c #CB5E05",
"-.	c #B93602",
";.	c #391B07",
">.	c #FEBB8B",
",.	c #FDB17D",
"'.	c #FD6A03",
").	c #FEC69F",
"!.	c #5C3B24",
"~.	c #EC9866",
"{.	c #87502B",
"].	c #FE7C19",
"^.	c #FE8C29",
"/.	c #FDA45D",
"(.	c #625E62",
"_.	c #FEBE7B",
":.	c #FE7603",
"<.	c #592A0B",
"[.	c #FC7632",
"}.	c #FE5E03",
"|.	c #FE5204",
"1.	c #9E6539",
"2.	c #ED7A03",
"3.	c #E49C56",
"4.	c #343434",
"5.	c #AB4A05",
"6.	c #BD5605",
"7.	c #F4F4F4",
"8.	c #FE9C59",
"9.	c #EE6828",
"0.	c #BE8252",
"a.	c #A76D47",
"b.	c #A29EA2",
"c.	c #827E82",
"d.	c #B4B4B4",
"e.	c #C2BEC2",
"f.	c #959495",
"g.	c #D4D4D4",
"h.	c #555455",
"i.	c #747474",
"j.	c #DF9C69",
"k.	c #FED4B7",
"l.	c #B2794D",
"m.	c #3B2313",
"n.	c #FEE4D2",
"o.	c #7A5840",
"p.	c #DA7E26",
"q.	c #79431F",
"r.	c #423E42",
"s.	c #A05725",
"t.	c #CC7C3A",
"u.	c #D83D02",
"v.	c #BB6C33",
"w.	c #FD4302",
"x.	c #DD9468",
"y.	c #FDA267",
"z.	c #973002",
"A.	c #D77C38",
"B.	c #F6EEED",
"C.	c #E57D33",
"D.	c #C66528",
"E.	c #DD6E02",
"F.	c #ACACAC",
"G.	c #E68D43",
"H.	c #322E32",
"I.	c #784D31",
"J.	c #FEDCC4",
"K.	c #D66721",
"L.	c #C98C57",
"M.	c #EFAF7C",
"N.	c #A86534",
"O.	c #8C8C8C",
"P.	c #CCCCCC",
"Q.	c #4C4C4C",
"R.	c #2C2C2C",
"S.	c #6C6C6C",
"T.	c #3C3C3C",
"U.	c #DCDCDC",
"V.	c #1C1C1C",
"W.	c #DD8C44",
"X.	c #D48D5B",
"Y.	c #B0714C",
"Z.	c #DE9B5A",
"`.	c #C97D4F",
" +	c #874921",
".+	c #5B361F",
"++	c #C65003",
"@+	c #FE9C2A",
"#+	c #BA733D",
"$+	c #FEAC3E",
"%+	c #0D0C0A",
"&+	c #D69672",
"*+	c #ECECEC",
"=+	c #783003",
"-+	c #EDA06D",
";+	c #FEFEFE",
">+	c #BCBBBC",
",+	c #9C9C9C",
"'+	c #5C5C5C",
")+	c #7C7C7C",
"!+	c #E68D55",
"~+	c #E25E1E",
"{+	c #E97118",
"]+	c #663D22",
"^+	c #A83C02",
"/+	c #DA5002",
"(+	c #C94102",
"_+	c #B63C02",
":+	c #BC7951",
"<+	c #965E3A",
"[+	c #984A17",
"}+	c #D85E02",
"|+	c #C9763A",
"1+	c #773E19",
"2+	c #DDA271",
"3+	c #FEEADC",
"4+	c #B95A18",
"5+	c #FE8528",
"6+	c #E67638",
"7+	c #4C3626",
"8+	c #C66A2E",
"9+	c #E4945B",
"0+	c #FE7C3B",
"a+	c #FD8C4A",
"b+	c #D57C46",
"c+	c #DE7226",
"d+	c #4A2206",
"e+	c #8E4A1A",
"f+	c #2B1609",
"g+	c #8A3E0C",
"h+	c #F2BE98",
"i+	c #1A0E06",
"j+	c #6A4A36",
"k+	c #5E361A",
"l+	c #B9662C",
"m+	c #CA5E36",
"n+	c #A25E32",
"o+	c #FEB35D",
"p+	c #935833",
"q+	c #CC5802",
"r+	c #FE8403",
"s+	c #EB7602",
"t+	c #E86A03",
"u+	c #FEB873",
"v+	c #9C4409",
"w+	c #DC5802",
"x+	c #983E03",
"y+	c #DC853D",
"z+	c #DB6A02",
"A+	c #2D1B0E",
"B+	c #6C2F07",
"C+	c #EE9C55",
"D+	c #3C2A1D",
"E+	c #AF632E",
"F+	c #DC8B4F",
"G+	c #FE9A1B",
"H+	c #FE6A29",
"                                                                                                                                                                                                                                                                ",
"                                                                                                                                                                                                                                                                ",
"                                                                                                                                                                                                                                                                ",
"                                                                                                                                                                                                                                                                ",
"                                                                                                                                                                                                                                                                ",
"                                                                                                                                                                                                                                                                ",
"                                                                                                                                                                                                                                                                ",
"                                                                                                                                                                                                                                                                ",
"                                                          f.. . . . _                                   T.. . . . O.                                                                              4.                                                F.          ",
"            . . .                                     . . . . I %+. . . .                           . . . . A+. . . .  .              . . .                   u . F.                        O.. . . . .                                   - . . . . . . _       ",
"          . . . . . 0                               . . -+g M w.w.w.H+r . .                     R.. . k.v w.w.w.M v 4+. .           . . . . . S.            . . . . .                       . h ).C ; .                         . . . . . . . m.u+n.>.t .       ",
"        . %+D w.S . .                           O.. . g w.w.w.w.w.w.w.w.S . .                 . . E+H+w.w.w.M M M |.M f . .       . . i }.T X .           . . >.].5 . u                   f.. _.r+r+2.. ..        O.. . . . . . . _.k.@.k.u+^.k 9 :.:.t+. d.    ",
"        . v w.w.w.=+.                         + . J M w.w.w., . m u.w.w.w.w.. .             . . @.M M M l , I h |.|.|.y |.. s     . J }.}.f ] .         . . J.9 9 9 . .                   . . @+$.$.d .         d.. f+v.I C+n.).&.k k :.:.:.:.:.:.9 9 Q .       ",
"        . w.w.w.w.. .                         . !.M w.w.@ . . . . . B w.w.w.-..           T.. @.M M M m . . . . . o y y }.%..     . . f '.'., .     . . . >.:.k :.K . 4.                  . 1+$.$.$.2.. i.      . . ; r+k k k k :.:.:.:.9 } x+I I f+. . .       ",
"        . .+w.w.[ . .                       . . S w.w., . . + ;+;+. . [ w.w.w.. .         . :+|.|.|.. . . U.;+g.. . }.}.}.w+. ..    . 9 9 '.Y .   . . M.5 :.k { i+. .                   Q.. @.$.$.$.$.. .       . 4+k k :.:.:.{ =.9 9 9 . . . . . . . .         ",
"        . .+w.w.[ . .                     . . a+w.w.7 . . ;+;+;+;+;+. 2 w.M w.: .       . . H+y |., . . ;+;+;+;+P.. ~ f f '.. .     . :.9 :.%.. . . n.r+r+k Q . . .                     . f+8 r+r+r+r+z+. 0     . . q+t+i+I . . . 9 '.'.. .                     ",
"        . .+w.w.[ . .                     . w w.w.w.m . ;+;+;+;+;+;+H.. M M M z..     + . >.y y /+. . ;+;+;+;+;+;+. . '.'.9 v+.     . k :.:.%.. . @.r+r+r+i+. .                       4.. @.r+r+i+k k k . .       . . . . . . . I f f f . .                     ",
"        . .+w.w.w.. .                   . . S w.w.I . )+;+;+;+;+;+*+e.. S M |.P . +   . . f }.}.i+. ;+;+;+;+;+;+0 Q.. T 9 9 : .     . k k k B+{.; r+r+k I . .                         . d+$.r+{ . { k :.}+.         d.        . %+}.}.}.. .                     ",
"        . .+w.w.[ . .                   . ,.w.w.[ . . ;+;+;+;+;+;+P.... T y y y . . 7.. ,.f f d . . ;+;+;+;+;+7.$ f.. 5 :.:.q+. 7.  . r+r+r+y+; r+$.=.. . 4.                        H.. ).k k . . . :.9 9 . .                 . I y }.y . .                     ",
"        . .+w.w.[ . .                   . H+w.w.m . g.0 f.+ O.;+g.F.+ . l+y }.y . . . . T f f I . ;+$ f.)+;+;+P.b.+ . A k k E.. ..  . $.r+r+r+$.$., . . 7.                          . <.k :.{ . . . '.'.'.++.                 . . y y |.. .                     ",
"        . !.w.w.[ . .                 . . M w.M <.. g.+ )+s ;+0 d.O.S.. q.}.}.}.. . . | '.'.t+. . f.O.)+h.;+U.F.+ s . C r+r+s+. +   . 8 $.r+$.$.r+I .                             _ . >.9 9 I . ;+. i+f '.f . .               . I |.|.M . .                     ",
"        . !.w.w.w.. .                 . y.|.M P . . )+i.s - ;+. f.S.h.. q.f f '.. . . y.9 9 q . O.)+i.s ,+;+. O.S.h.. u+r+r+2.. O.  . 8 $.$.r+$.$.$.! . F.                        . / 9 '.~ . . . . . }.}.}.o .               . %+M M M . .                     ",
"        . .+w.w.w.. .                 . 0+|.y B+. s S.s h.;+F.. i.'+Q.. `.'.'.'.. . . r+:.:.2 . i.S.s Q.;+V.. i.h.- . _.$.$.E.. d.  . 8 $.$.B+' r+r+$.f+. 7.                    . . y.'.'.I . . . . . q.y y y . .             . . w.w.w.. .                     ",
"        . !.w.w.[ . .               d.. D y y m . '+'+h.- ;+. . - - T.. ,.'.9 } . . . :.k k ] . s '+Q.T.;+. . s - Q.. _.$.$.Q .     . $.r+r+%.q k k k r+. .                     . / f f f E g 0+H+f }.y y |.|.(+.             . %+M w.w.. .                     ",
"        . k+M w.M . .               S.. f }.}.m . Q.- 4.i.. . . R.4.'+. H :.:.: . . . k r+r+Y . Q.- 4.;+. . . - 4.. . $+r+r+m .     . $.r+k %.. : :.:.:.k . .                 . . g }.}.}.}.y y y y y |.|.|.M M . .           . %+w.w.w.. .                     ",
"        . .+M |.M . .               R.. f f f , . 4._ %+. . . . R.V.. . 5+k k %+. . u r+r+r+%.. R._ %+. . . . R.V.. f+$.r+r+f+.     . r+k k ] . . : 9 9 9 ].. .               . U }.y y /+o K ] m I . . . M M M -..           . %+w.w.w.. .                     ",
"        . ]+|.y l . .               f.. '.'.'.L . u . . . . . . u %+. w k k r+. . . . $.$.$.X . u . . . . . . u 4.. @.r+r+t+.       . k :.:.%.. . . : f '.'.T . .           . . v y y . . . . . . . . . . [ M w.w.. .         . %+w.w.w.. .                     ",
"        . ]+y y l . .                 . T '.9 q+. . . . . . . . . . . H r+r+K . ... . r+$.$.5.. . . . . . . . %+. . ^.k k . .       . :.9 9 <..   . . 5.f f f '.. .         . y.|.|.l . . $             . . w.w.w.@ .         . . w.w.w.. .                     ",
"        . ]+}.}.~ . .             g.  . 5+9 9 9 . . . . . . . . %+. n.r+$.r+;..   d.. 8 r+$.s+. . . . . . . . . . @.k :.} . .       . T '.'.h .     . . d }.y }.D . .     . . 0+|.M . .                   . [ w.w.w.. .       . %+w.w.w.. .                     ",
"        . ]+f f ~ . .   + . . . . . . . a :.k k q+. . . . . %+. . 0.8 $.$.2 . i.    . 8 $.$.$.<.. . . . . %+. . n.:.9 9 I .         . 9 f f <..       . . o y y |.y . .   . g M M [ . .                   . 2 w.w.w.=+.       . . w.w.w.. .                     ",
"        . ]+f f f . . . . . . i+n.>.].. . k k r+r+I . . . . . . M.G+$.$.6.. .       . I r+r+r+r+. . . %+. . . n.:.9 9 2 . u         . '.}.f h .         . . o |.M |.M . . . 0+M w.I .                     R.. w.w.w.> .       . %+w.w.w.. .                     ",
"        . J '.9 '.i J.@.,.&.].:.k k s+. . z+r+r+r+G++.. . . ;.n.$.$.$.=.. .           . { r+k k #.2 . . . v.>.9 9 '.d+. .         . . f y y B+.           . . u.M M M 0+. E+w.w.w.I .                       . S w.w.w.. .     . %+w.w.w.. .                     ",
"        . >.9 9 9 :.:.:.k k k r+k k a . . . E.$.$.$.$.$+_.b $.$.$.r+=+. .             . . { :.:.9 9 g /.5+9 '.f f . . .           . g y y |.^+.             . . [ w.w.w.> g w.w.w.I .                       . a+w.w.w.. .     . ( w.w.w.h .                     ",
"        . ^.:.:.k k k k k s+=.q h : d+.   . . Q r+$.$.$.$.$.r+r+z+I . .                 . . q+9 9 9 '.'.f '.f q I . .             . ] |.|.|.i+.               . . w.w.w.. [ w.w.[ . .                       . w.w.w.7 . _     . z w.w.w.. .                     ",
"        . i+: Q m . 2 . . . . . . . . T.    . . . q E.2.s+& 2 2 . .                       . . 2 q w+~ z q . . . . F.              d.. . . I . .               $ . 2 I . . . I . . . 7.                      . . I . . .       . . I . . . O.                    ",
"          . . . . . . . . h.                  d.. . . . . . . . _                           R.. . . . . . . .                       0 . . . .                     . . . _ . . . .                             . . . .           . . . . g.                      ",
"                                                                                                                                                                                                                                                                ",
"                                                                                                                                                                                                                                                                ",
"                                                                                                                                                                                                                                                                ",
"                                                                                                                                                                                                                                                                ",
"                                                                                                                                                                                                                                                                ",
"                                                                                                                                                                                                                                                                ",
"                                                                                                                                                                                                                                                                "};
